<svg xmlns="http://www.w3.org/2000/svg" xmlns:xlink="http://www.w3.org/1999/xlink" width="500" zoomAndPan="magnify" viewBox="0 0 375 374.999991" height="500" preserveAspectRatio="xMidYMid meet" version="1.0"><defs><clipPath id="852e5829f9"><path d="M 4.554688 4.554688 L 370.445312 4.554688 L 370.445312 370.445312 L 4.554688 370.445312 Z M 4.554688 4.554688 " clip-rule="nonzero"/></clipPath><clipPath id="a09c4da3f9"><path d="M 187.5 4.554688 C 86.460938 4.554688 4.554688 86.460938 4.554688 187.5 C 4.554688 288.539062 86.460938 370.445312 187.5 370.445312 C 288.539062 370.445312 370.445312 288.539062 370.445312 187.5 C 370.445312 86.460938 288.539062 4.554688 187.5 4.554688 Z M 187.5 4.554688 " clip-rule="nonzero"/></clipPath><clipPath id="b54699cb58"><path d="M 251 217 L 315 217 L 315 309.605469 L 251 309.605469 Z M 251 217 " clip-rule="nonzero"/></clipPath><clipPath id="9e6abf1df2"><path d="M 58.492188 65.105469 L 309 65.105469 L 309 306 L 58.492188 306 Z M 58.492188 65.105469 " clip-rule="nonzero"/></clipPath><clipPath id="f29f0a4fb8"><path d="M 224.207031 75.757812 L 255.914062 75.757812 L 255.914062 107.464844 L 224.207031 107.464844 Z M 224.207031 75.757812 " clip-rule="nonzero"/></clipPath><clipPath id="c11b237036"><path d="M 240.058594 75.757812 C 231.304688 75.757812 224.207031 82.855469 224.207031 91.609375 C 224.207031 100.367188 231.304688 107.464844 240.058594 107.464844 C 248.816406 107.464844 255.914062 100.367188 255.914062 91.609375 C 255.914062 82.855469 248.816406 75.757812 240.058594 75.757812 Z M 240.058594 75.757812 " clip-rule="nonzero"/></clipPath></defs><g clip-path="url(#852e5829f9)"><g clip-path="url(#a09c4da3f9)"><path fill="#ffffff" d="M 4.554688 4.554688 L 370.445312 4.554688 L 370.445312 370.445312 L 4.554688 370.445312 Z M 4.554688 4.554688 " fill-opacity="1" fill-rule="nonzero"/></g></g><g clip-path="url(#b54699cb58)"><path fill="#0a2342" d="M 312.585938 287.914062 L 279.324219 225.257812 C 275.457031 217.984375 266.40625 215.1875 259.082031 219.054688 C 251.808594 222.917969 249.011719 231.972656 252.878906 239.292969 L 286.140625 301.953125 C 288.835938 307.039062 294.023438 309.886719 299.363281 309.886719 C 301.703125 309.886719 304.144531 309.328125 306.378906 308.15625 C 313.652344 304.292969 316.449219 295.238281 312.585938 287.914062 Z M 312.585938 287.914062 " fill-opacity="1" fill-rule="nonzero"/></g><path fill="#0a2342" d="M 240.113281 107.214844 C 248.808594 107.214844 255.828125 100.195312 255.828125 91.5 C 255.828125 82.804688 248.808594 75.785156 240.113281 75.785156 C 231.414062 75.785156 224.398438 82.804688 224.398438 91.5 C 224.398438 100.195312 231.414062 107.214844 240.113281 107.214844 Z M 240.113281 107.214844 " fill-opacity="1" fill-rule="nonzero"/><g clip-path="url(#9e6abf1df2)"><path fill="#0a2342" d="M 285.882812 170.484375 C 315.179688 130.507812 310.957031 106.859375 302.261719 94.042969 C 298.292969 88.195312 292.699219 83.667969 285.679688 80.617188 C 278.101562 77.3125 269.304688 80.769531 266 88.347656 C 262.691406 95.925781 266.152344 104.722656 273.730469 108.027344 C 275.507812 108.792969 276.78125 109.757812 277.492188 110.828125 C 280.953125 115.964844 277.542969 131.273438 261.726562 152.785156 C 243.875 177.144531 215.445312 203.183594 181.675781 226.070312 C 155.128906 244.074219 127.410156 258.46875 102.792969 267.46875 L 185.335938 111.945312 L 211.632812 161.480469 C 215.496094 168.804688 224.550781 171.550781 231.820312 167.6875 C 239.144531 163.820312 241.890625 154.769531 238.027344 147.496094 L 198.5625 73.039062 C 195.96875 68.15625 190.882812 65.105469 185.335938 65.105469 C 179.792969 65.105469 174.707031 68.15625 172.113281 73.039062 L 68.617188 268.183594 L 60.277344 283.949219 C 59.15625 286.085938 58.546875 288.527344 58.546875 290.964844 C 58.546875 299.207031 65.261719 305.917969 73.5 305.917969 C 74.363281 305.917969 75.179688 305.867188 75.941406 305.714844 C 110.984375 299.917969 155.6875 279.929688 198.5625 250.839844 C 235.027344 226.070312 266.050781 197.539062 285.882812 170.484375 Z M 285.882812 170.484375 " fill-opacity="1" fill-rule="nonzero"/></g><g clip-path="url(#f29f0a4fb8)"><g clip-path="url(#c11b237036)"><path fill="#0a2342" d="M 224.207031 75.757812 L 255.914062 75.757812 L 255.914062 107.464844 L 224.207031 107.464844 Z M 224.207031 75.757812 " fill-opacity="1" fill-rule="nonzero"/></g></g></svg>